<svg width="150" height="99" viewBox="0 0 150 99" fill="none" xmlns="http://www.w3.org/2000/svg">
<g id="Frame 1686557874">
<path id="Ellipse 135" d="M123.953 29.9659C135.514 31.3106 143.176 33.5349 148.975 37.8145C148.756 39.9649 147.083 42.5607 143.769 45.335C140.251 48.2793 135.075 51.2607 128.518 53.9271C115.413 59.2566 96.9421 63.2671 75.6016 63.2671C54.2616 63.2671 35.488 59.2323 22.0781 53.8758C15.369 51.1959 10.0404 48.2003 6.40899 45.2437C2.93648 42.4165 1.20601 39.7837 1.01736 37.6279C1.41267 37.274 2.04495 36.855 2.96384 36.3929C4.10046 35.8212 5.59837 35.2211 7.45515 34.6133C11.1671 33.3982 16.2427 32.1749 22.5794 31.0844C35.2444 28.9049 52.8769 27.2681 74.5787 27.2671C78.0664 27.4084 81.3995 27.5383 84.5869 27.6625C101.303 28.314 114.007 28.8092 123.953 29.9659Z" fill="#474545" stroke="#2B1502" stroke-width="2"/>
<path id="Union" fill-rule="evenodd" clip-rule="evenodd" d="M121.588 58.0923C121.985 56.1147 122.191 54.0856 122.191 52.0177C122.191 31.1686 101.242 14.2671 75.3998 14.2671C49.5579 14.2671 28.6089 31.1686 28.6089 52.0177C28.6089 54.1478 28.8276 56.2368 29.2479 58.2707C25.8872 61.9599 24 66.11 24 70.4977C24 85.8343 47.0573 98.2671 75.5 98.2671C103.943 98.2671 127 85.8343 127 70.4977C127 66.0391 125.051 61.8259 121.588 58.0923Z" fill="#FFD9B5"/>
<path id="Union (Stroke)" fill-rule="evenodd" clip-rule="evenodd" d="M119.858 58.5697L120.015 57.7855C120.392 55.9079 120.588 53.9816 120.588 52.0177C120.588 32.324 100.672 15.8483 75.3998 15.8483C50.1271 15.8483 30.2121 32.324 30.2121 52.0177C30.2121 54.0407 30.4197 56.0239 30.8187 57.955L30.9799 58.7352L30.4404 59.3275C27.2799 62.7969 25.6031 66.5854 25.6031 70.4977C25.6031 77.318 30.7517 83.8387 39.853 88.7462C48.8945 93.6215 61.4946 96.6859 75.5 96.6859C89.5054 96.6859 102.106 93.6215 111.147 88.7462C120.248 83.8387 125.397 77.318 125.397 70.4977C125.397 66.5227 123.666 62.6744 120.405 59.1596L119.858 58.5697ZM29.2479 58.2707C28.8276 56.2368 28.6089 54.1478 28.6089 52.0177C28.6089 31.1686 49.5579 14.2671 75.3998 14.2671C101.242 14.2671 122.191 31.1686 122.191 52.0177C122.191 54.0856 121.985 56.1147 121.588 58.0923C125.051 61.8259 127 66.0391 127 70.4977C127 85.8343 103.943 98.2671 75.5 98.2671C47.0573 98.2671 24 85.8343 24 70.4977C24 66.11 25.8872 61.9599 29.2479 58.2707Z" fill="#2B1502"/>
<path id="Vector 96 (Stroke)" fill-rule="evenodd" clip-rule="evenodd" d="M70 58.2671V59.8007C70 60.0621 69.9671 60.3227 69.9019 60.5775C69.7808 61.0508 69.5416 61.6281 68.9646 61.9619C68.6851 62.1236 68.3212 62.2671 67.9131 62.2671C67.6744 62.2671 67.4552 62.1931 67.274 62.104C67.0904 62.0137 66.9199 61.895 66.7713 61.7748C66.4744 61.5349 66.2256 61.2573 66.087 61.0906C65.9429 60.9174 65.9818 60.6715 66.1739 60.5416C66.366 60.4117 66.6386 60.4468 66.7826 60.62C66.9049 60.7671 67.1148 60.9993 67.3516 61.1907C67.4698 61.2863 67.585 61.3636 67.6903 61.4155C67.7981 61.4685 67.8713 61.4828 67.9131 61.4828C68.0969 61.4828 68.2975 61.4161 68.4951 61.3017C68.7752 61.1397 68.9468 60.8226 69.0546 60.4011C69.105 60.2042 69.1304 60.0028 69.1304 59.8007V58.2671H70Z" fill="black"/>
<path id="Vector 97 (Stroke)" fill-rule="evenodd" clip-rule="evenodd" d="M69.4348 58.2671C69.1947 58.2671 69 58.4427 69 58.6592V59.8007C69 60.0621 69.0329 60.3227 69.0981 60.5775C69.2192 61.0508 69.4584 61.6281 70.0354 61.9619C70.3149 62.1236 70.6788 62.2671 71.0869 62.2671C71.3256 62.2671 71.3333 62.2671 71.726 62.104C71.9096 62.0137 72.0801 61.895 72.2287 61.7748C72.5256 61.5349 72.7744 61.2573 72.913 61.0906C73.0571 60.9174 73.0182 60.6715 72.8261 60.5416C72.634 60.4117 72.3614 60.4468 72.2174 60.62C72.0951 60.7671 71.8852 60.9993 71.6484 61.1907C71.5302 61.2863 71.415 61.3636 71.3097 61.4155C71.2019 61.4685 71.1287 61.4828 71.0869 61.4828C70.9031 61.4828 70.7025 61.4161 70.5049 61.3017C70.2248 61.1397 70.0532 60.8226 69.9454 60.4011C69.895 60.2042 69.8696 60.0028 69.8696 59.8007V58.6592C69.8696 58.4427 69.6749 58.2671 69.4348 58.2671Z" fill="black"/>
<path id="Vector 95 (Stroke)" fill-rule="evenodd" clip-rule="evenodd" d="M71.6135 57.2842C71.8937 57.3535 72.0582 57.6131 71.9809 57.8642L71.9613 57.9281C71.3977 59.7589 68.4764 59.6952 68.0129 57.842C67.9493 57.5878 68.1277 57.3356 68.4113 57.2786C68.6949 57.2217 68.9764 57.3815 69.0399 57.6357C69.2638 58.5306 70.6744 58.5613 70.9466 57.6773L70.9663 57.6134C71.0435 57.3623 71.3333 57.2149 71.6135 57.2842Z" fill="black"/>
<path id="Vector 94" d="M39 29.2671C38.9983 29.2684 38.9965 29.2698 38.9948 29.2711C38.8253 29.4095 37.2422 31.2147 33.8563 36.6517C30.4323 42.1499 30.1268 44.6862 30.6487 45.2671C30.1964 44.9594 29.2422 44.0158 27.0709 42.703C24.3567 41.062 23.382 38.6605 23.1043 37.062C22.8191 35.4209 23.0393 33.0237 24.7745 32.0363C26.577 31.0107 28.115 31.8312 31.5599 32.0363C34.3118 32.2002 37.8067 30.196 38.9948 29.2711C38.9967 29.2696 38.9984 29.2682 39 29.2671Z" fill="#FAD8B2"/>
<path id="Vector 94 (Stroke)" fill-rule="evenodd" clip-rule="evenodd" d="M38.9716 30.5502C38.9763 30.5465 38.9804 30.5432 38.9837 30.5405L38.711 30.2197L38.9716 30.5502ZM38.9658 30.5547L38.4821 29.9583L38.4828 29.9592L38.9658 30.5547ZM38.71 30.2184L38.9837 30.5405C38.9939 30.5322 39 30.5281 39 30.5281C39.0016 30.5297 38.9246 30.607 38.7405 30.8295C38.5388 31.0734 38.2437 31.4481 37.8493 31.9842C37.0608 33.0561 35.8829 34.7627 34.269 37.3404C32.6503 39.9259 31.8011 41.7651 31.4137 42.9884C31.2193 43.6021 31 44.2329 31.0888 44.2888C31.0888 44.4021 31.0888 44.4021 31.0888 44.4021L29.8704 46C29.7195 45.8979 29.443 45.611 29.2765 45.4762L29.2728 45.4732C29.2605 45.4632 29.248 45.4531 29.2354 45.4429C29.0629 45.3032 28.8634 45.1416 28.6208 44.9548C28.1036 44.5566 27.3857 44.0407 26.3814 43.4367C23.4725 41.6873 22.4159 39.1125 22.1143 37.3858C21.9595 36.4998 21.937 35.3961 22.2043 34.3522C22.4723 33.3053 23.0604 32.2252 24.2017 31.5793C25.3229 30.9447 26.3662 30.9041 27.467 31.0121C27.8498 31.0496 28.2678 31.1085 28.6993 31.1694C28.8588 31.1919 29.0201 31.2146 29.1822 31.2367C29.7996 31.3206 30.483 31.4025 31.2728 31.4493C32.355 31.5134 33.6774 31.1476 34.9341 30.6022C36.171 30.0653 37.2177 29.4103 37.7174 29.0244C37.7267 29.017 37.7375 29.0088 37.7495 29L38.71 30.2184ZM34.8905 32.7338C34.2403 33.6906 33.4664 34.8725 32.5608 36.319C30.8951 38.9794 29.9556 40.9731 29.5006 42.4097C29.4333 42.622 29.3757 42.8252 29.3275 43.0193C28.8277 42.6567 28.2062 42.2361 27.431 41.7699C25.1329 40.3878 24.3196 38.3802 24.0884 37.0564C23.9697 36.3767 23.961 35.5539 24.1471 34.8273C24.3323 34.1037 24.682 33.5691 25.2053 33.2729C25.8131 32.9289 26.3719 32.8716 27.2671 32.9594C27.6037 32.9924 27.9568 33.0422 28.3696 33.1005C28.5377 33.1241 28.7156 33.1492 28.9064 33.1752C29.5489 33.2625 30.2891 33.3518 31.1516 33.4029C32.3961 33.4766 33.7148 33.1644 34.8905 32.7338Z" fill="#2B1502"/>
<path id="Ellipse 102" d="M65 55.5C65 56.8807 63.8807 58 62.5 58C61.1193 58 60 56.8807 60 55.5C60 54.1193 61.1193 53 62.5 53C63.8807 53 65 54.1193 65 55.5Z" fill="#120C0C"/>
<path id="Ellipse 103" d="M79 55.5C79 56.8807 77.8807 58 76.5 58C75.1193 58 74 56.8807 74 55.5C74 54.1193 75.1193 53 76.5 53C77.8807 53 79 54.1193 79 55.5Z" fill="#120C0C"/>
<path id="Ellipse 106" d="M49 61.7671C49 65.3569 51.6863 68.2671 55 68.2671C58.3137 68.2671 61 65.3569 61 61.7671C61 58.1772 58.3137 55.2671 55 55.2671C51.6863 55.2671 49 58.1772 49 61.7671Z" fill="#FEB4A9"/>
<path id="Ellipse 139" d="M90 60.7671C90 64.3569 87.3137 67.2671 84 67.2671C80.6863 67.2671 78 64.3569 78 60.7671C78 57.1772 80.6863 54.2671 84 54.2671C87.3137 54.2671 90 57.1772 90 60.7671Z" fill="#FEB4A9"/>
<path id="Ellipse 107" d="M59.3713 58.5745C58.8425 58.5705 58.4096 59.1388 58.4043 59.8439C58.399 60.5489 58.8234 61.1236 59.3522 61.1276C59.8809 61.1316 60.3138 60.5632 60.3191 59.8582C60.3244 59.1532 59.9 58.5784 59.3713 58.5745Z" fill="white"/>
<path id="Ellipse 140" d="M79.7777 58.4043C80.3064 58.4004 80.7394 58.9687 80.7446 59.6737C80.7499 60.3787 80.3255 60.9535 79.7968 60.9574C79.268 60.9614 78.8351 60.3931 78.8298 59.688C78.8245 58.983 79.2489 58.4083 79.7777 58.4043Z" fill="white"/>
<path id="Vector 99" d="M125 43.5C125.933 43.1035 129.134 34.4298 127.709 34.5101L124.08 34.1645C124.023 34.1591 123.967 34.1536 123.91 34.148C118.302 33.5916 110.616 40.9502 115.626 43.5296C117.477 44.4826 124.356 43.7739 125 43.5Z" fill="#FFD9B5"/>
<path id="Vector 99 (Stroke)" fill-rule="evenodd" clip-rule="evenodd" d="M109.573 29.426L110.361 29.7843C114.711 31.7631 119.361 33.0044 124.119 33.4577L127.723 33.801C127.924 33.7998 128.101 33.884 128.229 34.0299C128.35 34.167 128.411 34.3394 128.446 34.4959C128.515 34.8105 128.509 35.2253 128.465 35.6745C128.376 36.5867 128.11 37.7952 127.776 39.0014C127.441 40.211 127.03 41.4386 126.642 42.3935C126.449 42.8698 126.257 43.2874 126.08 43.6037C125.991 43.7613 125.901 43.903 125.81 44.017C125.729 44.1196 125.611 44.2467 125.457 44.3124C125.369 44.3495 125.263 44.3713 125.17 44.3866C125.068 44.4033 124.947 44.4175 124.811 44.4296C124.537 44.4538 124.188 44.4713 123.787 44.4813C122.984 44.5013 121.959 44.4919 120.898 44.444C119.837 44.396 118.732 44.3093 117.772 44.1733C116.828 44.0397 115.972 43.852 115.443 43.5797C115.169 43.4384 114.916 43.1574 114.688 42.8393C114.451 42.5087 114.205 42.0862 113.955 41.6022C113.454 40.633 112.92 39.3804 112.402 38.0369C111.364 35.3482 110.372 32.2586 109.808 30.259L109.573 29.426ZM110.82 30.8663C111.397 32.8116 112.257 35.4321 113.151 37.7477C113.665 39.0798 114.187 40.3017 114.668 41.2335C114.909 41.7 115.135 42.0846 115.341 42.3712C115.555 42.6702 115.715 42.8163 115.811 42.8655C116.208 43.0698 116.942 43.2445 117.885 43.378C118.811 43.5092 119.889 43.5943 120.934 43.6415C121.979 43.6887 122.985 43.6978 123.767 43.6783C124.158 43.6685 124.49 43.6517 124.739 43.6295C124.865 43.6183 124.965 43.6062 125.04 43.5939C125.086 43.5865 125.114 43.5801 125.129 43.5763C125.138 43.5676 125.156 43.5496 125.182 43.5173C125.235 43.4497 125.302 43.3484 125.379 43.2105C125.533 42.9359 125.71 42.5528 125.898 42.0912C126.272 41.1702 126.673 39.9726 127.002 38.7868C127.332 37.5977 127.583 36.4406 127.666 35.5961C127.708 35.1669 127.702 34.8556 127.661 34.6687C127.655 34.6393 127.648 34.6169 127.642 34.6002L124.043 34.2573C119.484 33.823 115.022 32.6783 110.82 30.8663Z" fill="#FFD9B5"/>
<path id="Vector 93 (Stroke)" fill-rule="evenodd" clip-rule="evenodd" d="M111.857 29.2792C112.262 28.9069 112.917 28.9069 113.322 29.2792C113.35 29.3048 113.379 29.3321 113.41 29.361C114.099 29.998 115.618 31.4036 117.755 31.9956C118.961 32.3295 120.471 32.4236 121.949 32.4481C122.424 32.456 122.872 32.4567 123.302 32.4574C123.543 32.4578 123.778 32.4582 124.009 32.4598C124.621 32.4641 125.215 32.4771 125.678 32.5362C127.641 32.7873 128.767 34.0128 129.353 35.2743C129.926 36.5064 130.044 37.8736 129.987 38.7724C129.935 39.837 129.251 40.961 128.46 41.93C126.654 44.1429 123.878 45.4754 120.962 45.8191C119.694 45.9686 118.506 46.0142 117.451 45.9963C114.842 45.9521 111.554 45.123 110.214 42.5425C110.15 42.4184 110.092 42.287 110.046 42.1497C109.878 41.6465 110.185 41.113 110.731 40.9582C111.278 40.8034 111.858 41.0858 112.026 41.589C112.037 41.6228 112.055 41.6667 112.083 41.7206C112.897 43.2881 115.105 44.0496 117.489 44.0901C118.452 44.1064 119.539 44.0648 120.699 43.928C123.129 43.6416 125.373 42.5383 126.804 40.7849C127.547 39.8736 127.897 39.142 127.918 38.6838L127.918 38.6751L127.919 38.6664C127.964 37.9763 127.864 36.9171 127.449 36.0239C127.046 35.1565 126.412 34.5549 125.393 34.4246C125.083 34.3851 124.619 34.3707 123.994 34.3663C123.787 34.3649 123.562 34.3645 123.326 34.3641C122.884 34.3633 122.4 34.3625 121.912 34.3544C120.413 34.3295 118.657 34.2364 117.158 33.8213C114.502 33.0854 112.658 31.3714 111.961 30.7235C111.923 30.6881 111.888 30.656 111.857 30.6274C111.453 30.2551 111.453 29.6515 111.857 29.2792Z" fill="#2B1502"/>
<path id="Ellipse 136" d="M150 36.8346C150 43.2231 113.814 35.0081 72.3931 35.0081C30.9717 35.0081 0 43.2231 0 36.8346C0 30.446 33.5786 25.2671 75 25.2671C116.421 25.2671 150 30.446 150 36.8346Z" fill="#060606"/>
<path id="Ellipse 137" d="M115 25.6652C115 37.483 97.0914 31.9942 75 31.9942C52.9086 31.9942 35 37.483 35 25.6652C35 13.8473 52.9086 4.26709 75 4.26709C97.0914 4.26709 115 13.8473 115 25.6652Z" fill="#060606"/>
<path id="Union_2" fill-rule="evenodd" clip-rule="evenodd" d="M58.8044 1.2003C59.4836 0.282962 60.7917 0.117561 61.6812 0.836563L66.3731 4.62912C67.8905 5.8557 66.9498 8.30314 65.003 8.19361L64.3498 8.15686L64.835 11.9313L68.3173 11.491C69.4176 11.3519 70.4242 12.1309 70.5657 13.2309L70.7909 14.9828C70.9323 16.0828 70.1549 17.0873 69.0546 17.2265L65.5723 17.6668L66.4796 24.7246L60.2788 25.5087L59.5114 18.4331L55.7957 18.9029C54.6954 19.042 53.6888 18.2631 53.5474 17.163L53.3222 15.4111C53.1808 14.3111 53.9581 13.3066 55.0584 13.1675L58.8879 12.6833L58.4697 8.82782L57.4464 9.15272C55.5898 9.74219 54.0609 7.60746 55.2193 6.0429L58.8044 1.2003Z" fill="#9D826D"/>
<path id="Union (Stroke)_2" fill-rule="evenodd" clip-rule="evenodd" d="M63.1998 7.08649L65.0594 7.19111C66.0281 7.24561 66.5045 6.02643 65.7419 5.40999L61.05 1.61744C60.6032 1.25625 59.9494 1.34124 59.6114 1.79775L56.0262 6.64035C55.4501 7.41862 56.2098 8.49186 57.1426 8.19571L59.3356 7.49942L59.9925 13.5557L55.1844 14.1636C54.635 14.2331 54.2475 14.7339 54.3181 15.2831L54.5433 17.035C54.6141 17.5858 55.1188 17.9764 55.6698 17.9068L60.3995 17.3087L61.1668 24.3843L65.3554 23.8547L64.4481 16.7968L68.9286 16.2303C69.478 16.1608 69.8656 15.66 69.795 15.1108L69.5698 13.3589C69.499 12.8081 68.9942 12.4175 68.4433 12.4872L63.9668 13.0532L63.1998 7.08649ZM66.4796 24.7246L60.2788 25.5087L59.5114 18.4331L55.7957 18.9029C54.6954 19.042 53.6888 18.2631 53.5474 17.163L53.3222 15.4111C53.1808 14.3111 53.9581 13.3066 55.0584 13.1675L58.8879 12.6833L58.4697 8.82782L57.4464 9.15272C55.5898 9.74219 54.0609 7.60746 55.2193 6.0429L58.8044 1.2003C59.4836 0.282962 60.7917 0.117561 61.6812 0.836563L66.3731 4.62912C67.7929 5.77683 67.0606 7.99346 65.3656 8.18403C65.2491 8.19712 65.1281 8.20065 65.003 8.19361L64.3498 8.15686L64.835 11.9313L68.3173 11.491C69.4176 11.3519 70.4242 12.1309 70.5657 13.2309L70.7909 14.9828C70.9323 16.0828 70.1549 17.0873 69.0546 17.2265L65.5723 17.6668L66.4796 24.7246Z" fill="#372612"/>
<path id="Union_3" fill-rule="evenodd" clip-rule="evenodd" d="M87.8929 2.29043C86.9343 2.13551 85.9898 2.76808 85.7835 3.7033L84.1736 11.0002C83.9672 11.9355 84.5771 12.8192 85.5358 12.9741L86.249 13.0894L85.9062 14.9768L82.4316 14.4806C81.3633 14.328 80.3829 15.059 80.2418 16.1133L80.017 17.7932C79.8759 18.8474 80.6275 19.8258 81.6958 19.9783L84.9144 20.438L84.0658 25.1105L90.0338 26.2671L90.9363 21.298L94.5684 21.8167C95.6367 21.9692 96.6171 21.2382 96.7582 20.184L96.983 18.5041C97.1241 17.4498 96.3725 16.4715 95.3042 16.3189L91.9281 15.8368L92.2509 14.0593L93.2033 14.2132C94.162 14.3681 95.1064 13.7355 95.3128 12.8003L96.9227 5.50334C97.129 4.56812 96.5191 3.68438 95.5605 3.52946L87.8929 2.29043ZM89.9917 7.11403C89.8852 7.09682 89.7803 7.1671 89.7574 7.27102L89.3786 8.9878C89.3557 9.09171 89.4234 9.18991 89.5299 9.20712L91.3265 9.49744C91.433 9.51465 91.538 9.44437 91.5609 9.34045L91.9397 7.62367C91.9626 7.51976 91.8948 7.42156 91.7883 7.40435L89.9917 7.11403Z" fill="#9D826D"/>
<path id="Union (Stroke)_3" fill-rule="evenodd" clip-rule="evenodd" d="M87.3856 12.2974L86.7017 16.0632L82.2914 15.4334C81.7621 15.3578 81.2806 15.7168 81.2107 16.2391L80.9859 17.919C80.9147 18.4509 81.297 18.9486 81.836 19.0256L86.0543 19.628L85.1969 24.3485L89.2469 25.1334L90.1408 20.2116L94.7086 20.8639C95.2379 20.9395 95.7194 20.5805 95.7893 20.0581L96.0141 18.3783C96.0853 17.8463 95.703 17.3487 95.164 17.2717L90.7882 16.6468L91.4586 12.9556L93.3615 13.2631C93.8069 13.3351 94.262 13.0303 94.3578 12.5958L95.9678 5.29887C96.0553 4.90221 95.8089 4.5452 95.4023 4.4795L87.7348 3.24046C87.2894 3.1685 86.8343 3.47333 86.7384 3.90778L85.1285 11.2047C85.041 11.6014 85.2874 11.9584 85.694 12.0241L87.3856 12.2974ZM90.0338 26.2671L84.0658 25.1105L84.9144 20.438L81.6958 19.9783C80.6275 19.8258 79.8759 18.8474 80.017 17.7932L80.2418 16.1133C80.3829 15.059 81.3633 14.328 82.4316 14.4806L85.9062 14.9768L86.249 13.0894L85.5358 12.9741C85.4622 12.9622 85.3907 12.946 85.3214 12.9259C84.4883 12.6832 83.9831 11.8637 84.1736 11.0002L85.7835 3.7033C85.9898 2.76808 86.9343 2.13551 87.8929 2.29043L95.5605 3.52946C96.5191 3.68438 97.129 4.56812 96.9227 5.50334L95.3128 12.8003C95.1064 13.7355 94.162 14.3681 93.2033 14.2132L92.2509 14.0593L91.9281 15.8368L95.3042 16.3189C96.3725 16.4715 97.1241 17.4498 96.983 18.5041L96.7582 20.184C96.6171 21.2382 95.6367 21.9692 94.5684 21.8167L90.9363 21.298L90.0338 26.2671ZM88.8024 7.06654C88.9358 6.46186 89.5301 6.06383 90.1499 6.164L91.9465 6.45432C92.6051 6.56074 93.0364 7.18566 92.8946 7.82815L92.5159 9.54493C92.3824 10.1496 91.7882 10.5476 91.1683 10.4475L89.3718 10.1572C88.7132 10.0507 88.2819 9.4258 88.4236 8.78332L88.8024 7.06654ZM89.7574 7.27102C89.7803 7.1671 89.8852 7.09682 89.9917 7.11403L91.7883 7.40435C91.8948 7.42156 91.9626 7.51976 91.9397 7.62367L91.5609 9.34045C91.538 9.44437 91.433 9.51465 91.3265 9.49744L89.5299 9.20712C89.4234 9.18991 89.3557 9.09171 89.3786 8.9878L89.7574 7.27102Z" fill="#372612"/>
<path id="Ellipse 138" d="M114 26.4788C114 28.2525 96.5391 26.4788 75 26.4788C53.4609 26.4788 36 28.2525 36 26.4788C36 24.705 53.4609 23.2671 75 23.2671C96.5391 23.2671 114 24.705 114 26.4788Z" fill="#DA1717"/>
<path id="Ellipse 128" d="M136 40.2671C136 41.3717 135.328 42.2671 134.5 42.2671C133.672 42.2671 133 41.3717 133 40.2671C133 39.1625 133.672 38.2671 134.5 38.2671C135.328 38.2671 136 39.1625 136 40.2671Z" fill="#A37A3C"/>
<path id="Ellipse 128 (Stroke)" fill-rule="evenodd" clip-rule="evenodd" d="M134.5 41.9912C135.148 41.9912 135.75 41.2705 135.75 40.2671C135.75 39.2637 135.148 38.543 134.5 38.543C133.852 38.543 133.25 39.2637 133.25 40.2671C133.25 41.2705 133.852 41.9912 134.5 41.9912ZM134.5 42.2671C135.328 42.2671 136 41.3717 136 40.2671C136 39.1625 135.328 38.2671 134.5 38.2671C133.672 38.2671 133 39.1625 133 40.2671C133 41.3717 133.672 42.2671 134.5 42.2671Z" fill="black"/>
<path id="Ellipse 129" d="M136 44.2671C136 45.3717 135.328 46.2671 134.5 46.2671C133.672 46.2671 133 45.3717 133 44.2671C133 43.1625 133.672 42.2671 134.5 42.2671C135.328 42.2671 136 43.1625 136 44.2671Z" fill="#A37A3C"/>
<path id="Ellipse 129 (Stroke)" fill-rule="evenodd" clip-rule="evenodd" d="M134.5 45.9912C135.148 45.9912 135.75 45.2705 135.75 44.2671C135.75 43.2637 135.148 42.543 134.5 42.543C133.852 42.543 133.25 43.2637 133.25 44.2671C133.25 45.2705 133.852 45.9912 134.5 45.9912ZM134.5 46.2671C135.328 46.2671 136 45.3717 136 44.2671C136 43.1625 135.328 42.2671 134.5 42.2671C133.672 42.2671 133 43.1625 133 44.2671C133 45.3717 133.672 46.2671 134.5 46.2671Z" fill="black"/>
<path id="Ellipse 130" d="M136 48.7671C136 50.1478 135.328 51.2671 134.5 51.2671C133.672 51.2671 133 50.1478 133 48.7671C133 47.3864 133.672 46.2671 134.5 46.2671C135.328 46.2671 136 47.3864 136 48.7671Z" fill="#A37A3C"/>
<path id="Ellipse 130 (Stroke)" fill-rule="evenodd" clip-rule="evenodd" d="M134.5 50.9223C135.148 50.9223 135.75 50.0213 135.75 48.7671C135.75 47.5129 135.148 46.6119 134.5 46.6119C133.852 46.6119 133.25 47.5129 133.25 48.7671C133.25 50.0213 133.852 50.9223 134.5 50.9223ZM134.5 51.2671C135.328 51.2671 136 50.1478 136 48.7671C136 47.3864 135.328 46.2671 134.5 46.2671C133.672 46.2671 133 47.3864 133 48.7671C133 50.1478 133.672 51.2671 134.5 51.2671Z" fill="black"/>
<path id="Ellipse 131" d="M136 52.2671C136 53.3717 135.328 54.2671 134.5 54.2671C133.672 54.2671 133 53.3717 133 52.2671C133 51.1625 133.672 50.2671 134.5 50.2671C135.328 50.2671 136 51.1625 136 52.2671Z" fill="#A37A3C"/>
<path id="Ellipse 131 (Stroke)" fill-rule="evenodd" clip-rule="evenodd" d="M134.5 53.9912C135.148 53.9912 135.75 53.2705 135.75 52.2671C135.75 51.2637 135.148 50.543 134.5 50.543C133.852 50.543 133.25 51.2637 133.25 52.2671C133.25 53.2705 133.852 53.9912 134.5 53.9912ZM134.5 54.2671C135.328 54.2671 136 53.3717 136 52.2671C136 51.1625 135.328 50.2671 134.5 50.2671C133.672 50.2671 133 51.1625 133 52.2671C133 53.3717 133.672 54.2671 134.5 54.2671Z" fill="black"/>
<path id="Ellipse 132" d="M136 56.2671C136 57.3717 135.328 58.2671 134.5 58.2671C133.672 58.2671 133 57.3717 133 56.2671C133 55.1625 133.672 54.2671 134.5 54.2671C135.328 54.2671 136 55.1625 136 56.2671Z" fill="#A37A3C"/>
<path id="Ellipse 132 (Stroke)" fill-rule="evenodd" clip-rule="evenodd" d="M134.5 57.9912C135.148 57.9912 135.75 57.2705 135.75 56.2671C135.75 55.2637 135.148 54.543 134.5 54.543C133.852 54.543 133.25 55.2637 133.25 56.2671C133.25 57.2705 133.852 57.9912 134.5 57.9912ZM134.5 58.2671C135.328 58.2671 136 57.3717 136 56.2671C136 55.1625 135.328 54.2671 134.5 54.2671C133.672 54.2671 133 55.1625 133 56.2671C133 57.3717 133.672 58.2671 134.5 58.2671Z" fill="black"/>
<rect id="Rectangle 34627037" x="29.7" y="44" width="1" height="2" rx="0.5" fill="#2B1502"/>
</g>
</svg>
