<svg width="125" height="83" viewBox="0 0 125 83" fill="none" xmlns="http://www.w3.org/2000/svg">
<g id="Frame 1686557876">
<path id="Ellipse 135" d="M103.27 25.1282C112.852 26.2896 119.185 28.2046 123.974 31.8637C123.771 33.6812 122.403 35.8859 119.685 38.2572C116.77 40.7995 112.474 43.3798 107.022 45.6902C96.1259 50.3079 80.7602 53.7859 63.0013 53.7859C45.243 53.7859 29.6241 50.2868 18.4736 45.6452C12.8944 43.3228 8.47105 40.7299 5.46164 38.1766C2.60838 35.7557 1.19444 33.5172 1.01876 31.6953C1.3357 31.4103 1.83483 31.0692 2.55966 30.6893C3.49601 30.1985 4.73481 29.6809 6.27624 29.1551C9.35758 28.104 13.5771 27.0437 18.8513 26.0979C29.3914 24.2077 44.0717 22.7871 62.1447 22.786C65.0508 22.9086 67.8279 23.0214 70.4831 23.1293C84.4133 23.6951 94.9909 24.1248 103.27 25.1282Z" fill="#474545" stroke="#2B1502" stroke-width="2"/>
<path id="Union" fill-rule="evenodd" clip-rule="evenodd" d="M100.534 49.3069C100.861 47.6589 101.031 45.968 101.031 44.2448C101.031 26.8705 83.7431 12.7859 62.4173 12.7859C41.0915 12.7859 23.8035 26.8705 23.8035 44.2448C23.8035 46.0199 23.984 47.7607 24.3308 49.4556C21.5574 52.53 20 55.9884 20 59.6448C20 72.4253 39.0279 82.7859 62.5 82.7859C85.9721 82.7859 105 72.4253 105 59.6448C105 55.9293 103.392 52.4183 100.534 49.3069Z" fill="#FFD9B5"/>
<path id="Union_2" fill-rule="evenodd" clip-rule="evenodd" d="M58.9206 51.9996C58.6148 52.2114 58.1988 52.3299 57.6706 52.3299C57.0815 52.3299 56.6319 52.1824 56.3191 51.9226C56.0101 51.6659 55.8706 51.3258 55.8706 51.0322C55.8706 50.7284 56.1168 50.4822 56.4206 50.4822C56.7184 50.4822 56.9609 50.7188 56.9703 51.0143C56.9735 51.0219 56.9853 51.046 57.0221 51.0765C57.0843 51.1282 57.2597 51.2299 57.6706 51.2299C58.0815 51.2299 58.2569 51.1282 58.3191 51.0765C58.3549 51.0468 58.367 51.0233 58.3706 51.015V49.786C58.3706 49.4822 58.6168 49.236 58.9206 49.236C58.9206 49.236 58.9206 49.236 58.9206 49.236C58.9206 49.236 58.9206 49.236 58.9206 49.236C59.2244 49.236 59.4706 49.4822 59.4706 49.786V51.015C59.4742 51.0233 59.4864 51.0468 59.5221 51.0765C59.5843 51.1282 59.7597 51.2299 60.1706 51.2299C60.5815 51.2299 60.7569 51.1282 60.8191 51.0765C60.8559 51.046 60.8677 51.0219 60.8709 51.0143C60.8803 50.7188 61.1228 50.4822 61.4206 50.4822C61.7244 50.4822 61.9706 50.7284 61.9706 51.0322C61.9706 51.3258 61.8311 51.6659 61.5221 51.9226C61.2093 52.1824 60.7597 52.3299 60.1706 52.3299C59.6425 52.3299 59.2264 52.2114 58.9206 51.9996Z" fill="black"/>
<path id="Union (Stroke)" fill-rule="evenodd" clip-rule="evenodd" d="M99.1063 49.7048L99.236 49.0513C99.5467 47.4866 99.7082 45.8813 99.7082 44.2448C99.7082 27.8334 83.2734 14.1036 62.4173 14.1036C41.5612 14.1036 25.1265 27.8334 25.1265 44.2448C25.1265 45.9306 25.2978 47.5833 25.6271 49.1925L25.7601 49.8427L25.3149 50.3363C22.7067 53.2275 21.323 56.3846 21.323 59.6448C21.323 65.3283 25.5718 70.7623 33.0826 74.8519C40.544 78.9146 50.9422 81.4683 62.5 81.4683C74.0578 81.4683 84.456 78.9146 91.9174 74.8519C99.4282 70.7623 103.677 65.3283 103.677 59.6448C103.677 56.3323 102.248 53.1254 99.5577 50.1963L99.1063 49.7048ZM24.3308 49.4556C23.984 47.7607 23.8035 46.0199 23.8035 44.2448C23.8035 26.8705 41.0915 12.7859 62.4173 12.7859C83.7431 12.7859 101.031 26.8705 101.031 44.2448C101.031 45.968 100.861 47.6589 100.534 49.3069C103.392 52.4183 105 55.9293 105 59.6448C105 72.4253 85.9721 82.7859 62.5 82.7859C39.0279 82.7859 20 72.4253 20 59.6448C20 55.9884 21.5574 52.53 24.3308 49.4556Z" fill="#2B1502"/>
<path id="Vector 95 (Stroke)" fill-rule="evenodd" clip-rule="evenodd" d="M60.6135 47.8031C60.8937 47.8723 61.0582 48.132 60.9809 48.3831L60.9613 48.447C60.3977 50.2777 57.4764 50.214 57.0129 48.3608C56.9493 48.1067 57.1277 47.8545 57.4113 47.7975C57.6949 47.7405 57.9764 47.9004 58.0399 48.1545C58.2638 49.0494 59.6744 49.0802 59.9466 48.1961L59.9663 48.1323C60.0435 47.8812 60.3333 47.7338 60.6135 47.8031Z" fill="black"/>
<path id="Vector 94" d="M32 24.7859C31.9986 24.7871 31.9972 24.7883 31.9958 24.7895C31.8581 24.9106 30.5718 26.4901 27.8207 31.2475C25.0387 36.0584 24.7905 38.2777 25.2146 38.7859C24.847 38.5167 24.0718 37.6911 22.3076 36.5424C20.1023 35.1065 19.3104 33.0052 19.0847 31.6065C18.8531 30.1706 19.0319 28.073 20.4418 27.209C21.9063 26.3116 23.156 27.0295 25.9549 27.209C28.1909 27.3524 31.0304 25.5988 31.9958 24.7895C31.9973 24.7881 31.9987 24.7869 32 24.7859Z" fill="#FAD8B2"/>
<path id="Vector 94 (Stroke)" fill-rule="evenodd" clip-rule="evenodd" d="M31.9766 26.0626C31.9805 26.0595 31.9838 26.0569 31.9866 26.0546L31.762 25.7904L31.9766 26.0626ZM31.9718 26.0663L31.5735 25.5752L31.5741 25.5759L31.9718 26.0663ZM31.7611 25.7893L31.9866 26.0546C31.995 26.0478 32 26.0444 32 26.0444C32.0013 26.0457 31.9379 26.1094 31.7863 26.2926C31.6202 26.4935 31.3772 26.802 31.0524 27.2435C30.403 28.1263 29.433 29.5317 28.1039 31.6545C26.7709 33.7837 26.0715 35.2984 25.7524 36.3058C25.5924 36.8112 25.4118 37.3307 25.4849 37.3767C25.4849 37.47 25.4849 37.47 25.4849 37.47L24.4815 38.7859C24.3572 38.7019 24.1295 38.4656 23.9924 38.3546L23.9894 38.3521C23.9792 38.3439 23.9689 38.3356 23.9585 38.3272C23.8165 38.2121 23.6522 38.079 23.4525 37.9252C23.0265 37.5973 22.4353 37.1724 21.6082 36.675C19.2127 35.2343 18.3425 33.1139 18.0941 31.6919C17.9667 30.9623 17.9481 30.0533 18.1682 29.1937C18.389 28.3315 18.8733 27.442 19.8131 26.9101C20.7365 26.3875 21.5957 26.354 22.5022 26.4429C22.8175 26.4738 23.1617 26.5224 23.5171 26.5725C23.6484 26.591 23.7813 26.6098 23.9148 26.6279C24.4232 26.697 24.986 26.7645 25.6364 26.803C26.5276 26.8558 27.6167 26.5546 28.6516 26.1054C29.6703 25.6632 30.5322 25.1239 30.9437 24.806C30.9514 24.8 30.9603 24.7932 30.9702 24.7859L31.7611 25.7893ZM28.6157 27.8609C28.0803 28.6488 27.4429 29.6221 26.6971 30.8133C25.3254 33.0043 24.5516 34.6461 24.1769 35.8293C24.1216 36.004 24.0741 36.1714 24.0344 36.3313C23.6228 36.0327 23.111 35.6862 22.4726 35.3023C20.5801 34.1641 19.9103 32.5108 19.7199 31.4207C19.6221 30.8609 19.6149 30.1833 19.7682 29.5849C19.9207 28.989 20.2087 28.5487 20.6397 28.3048C21.1402 28.0215 21.6004 27.9744 22.3376 28.0467C22.6148 28.0738 22.9056 28.1148 23.2456 28.1628C23.384 28.1823 23.5305 28.203 23.6876 28.2243C24.2168 28.2962 24.8263 28.3698 25.5366 28.4119C26.5615 28.4726 27.6475 28.2155 28.6157 27.8609Z" fill="#2B1502"/>
<path id="Ellipse 102" d="M55 46.7859C55 47.8905 54.1046 48.7859 53 48.7859C51.8954 48.7859 51 47.8905 51 46.7859C51 45.6814 51.8954 44.7859 53 44.7859C54.1046 44.7859 55 45.6814 55 46.7859Z" fill="#120C0C"/>
<path id="Ellipse 106" d="M40 52.2859C40 55.3235 42.4624 57.7859 45.5 57.7859C48.5376 57.7859 51 55.3235 51 52.2859C51 49.2484 48.5376 46.7859 45.5 46.7859C42.4624 46.7859 40 49.2484 40 52.2859Z" fill="#FEB4A9"/>
<path id="Ellipse 139" d="M76 52.2859C76 55.3235 73.5376 57.7859 70.5 57.7859C67.4624 57.7859 65 55.3235 65 52.2859C65 49.2484 67.4624 46.7859 70.5 46.7859C73.5376 46.7859 76 49.2484 76 52.2859Z" fill="#FEB4A9"/>
<path id="Ellipse 107" d="M49.063 49.5461C48.6224 49.5428 48.2616 50.0235 48.2572 50.6199C48.2528 51.2162 48.6065 51.7024 49.0471 51.7057C49.4878 51.7091 49.8485 51.2284 49.8529 50.632C49.8573 50.0356 49.5037 49.5495 49.063 49.5461Z" fill="white"/>
<path id="Ellipse 140" d="M66.937 49.5461C67.3776 49.5428 67.7384 50.0235 67.7428 50.6199C67.7472 51.2162 67.3935 51.7024 66.9529 51.7057C66.5122 51.7091 66.1515 51.2284 66.1471 50.632C66.1427 50.0356 66.4963 49.5495 66.937 49.5461Z" fill="white"/>
<path id="Vector 99" d="M103.754 36.7951C104.531 36.4598 107.199 29.123 106.011 29.1909L102.987 28.8986C98.2579 28.4413 91.7248 34.6163 95.9425 36.8202C97.485 37.6263 103.217 37.0268 103.754 36.7951Z" fill="#FFD9B5"/>
<path id="Vector 99 (Stroke)" fill-rule="evenodd" clip-rule="evenodd" d="M90.8979 24.8904L91.5546 25.1935C95.1802 26.8672 99.0548 27.9173 103.02 28.3007L106.023 28.5911C106.191 28.5901 106.338 28.6613 106.445 28.7847C106.545 28.9007 106.597 29.0465 106.625 29.1788C106.683 29.445 106.678 29.7958 106.642 30.1758C106.567 30.9474 106.346 31.9696 106.067 32.9899C105.788 34.0131 105.446 35.0515 105.122 35.8592C104.961 36.2621 104.802 36.6153 104.654 36.8828C104.58 37.0161 104.505 37.136 104.429 37.2324C104.361 37.3192 104.263 37.4267 104.135 37.4823C104.062 37.5137 103.973 37.5322 103.896 37.545C103.811 37.5592 103.71 37.5712 103.596 37.5814C103.368 37.6019 103.077 37.6167 102.743 37.6251C102.074 37.6421 101.22 37.6341 100.335 37.5936C99.4514 37.553 98.531 37.4797 97.731 37.3647C96.9443 37.2516 96.2307 37.0928 95.79 36.8625C95.5611 36.743 95.3508 36.5053 95.1607 36.2362C94.9632 35.9566 94.7578 35.5993 94.5494 35.1898C94.1322 34.37 93.6876 33.3105 93.2555 32.1741C92.3907 29.8998 91.5642 27.2864 91.0939 25.595L90.8979 24.8904ZM91.9374 26.1087C92.4178 27.7542 93.1352 29.9707 93.88 31.9294C94.3084 33.0562 94.743 34.0898 95.1441 34.878C95.3449 35.2725 95.5335 35.5979 95.7047 35.8403C95.8834 36.0932 96.0167 36.2168 96.0964 36.2584C96.4269 36.4312 97.0394 36.579 97.8248 36.6919C98.5968 36.8029 99.4945 36.8749 100.366 36.9148C101.236 36.9547 102.075 36.9624 102.726 36.9459C103.053 36.9376 103.329 36.9234 103.537 36.9046C103.641 36.8952 103.725 36.885 103.787 36.8746C103.825 36.8682 103.849 36.8629 103.862 36.8597C103.869 36.8523 103.884 36.8371 103.905 36.8097C103.95 36.7525 104.005 36.6669 104.07 36.5502C104.198 36.3179 104.346 35.9939 104.502 35.6035C104.814 34.8244 105.148 33.8114 105.422 32.8084C105.697 31.8026 105.906 30.8238 105.976 30.1095C106.011 29.7465 106.006 29.4831 105.972 29.325C105.966 29.3001 105.961 29.2812 105.956 29.2671L102.956 28.977C99.157 28.6097 95.4392 27.6414 91.9374 26.1087Z" fill="#FFD9B5"/>
<path id="Vector 93 (Stroke)" fill-rule="evenodd" clip-rule="evenodd" d="M92.5785 25.0159C92.9223 24.7093 93.4797 24.7093 93.8235 25.0159C93.8471 25.037 93.8722 25.0595 93.8987 25.0832C94.484 25.6079 95.7754 26.7653 97.5921 27.2529C98.6167 27.5279 99.9005 27.6054 101.157 27.6256C101.56 27.6321 101.941 27.6327 102.306 27.6332C102.511 27.6336 102.712 27.6339 102.908 27.6352C103.428 27.6388 103.933 27.6494 104.326 27.6981C105.995 27.9049 106.952 28.9141 107.45 29.9531C107.937 30.9677 108.038 32.0936 107.989 32.8338C107.945 33.7106 107.363 34.6362 106.691 35.4342C105.156 37.2566 102.797 38.3539 100.318 38.637C99.2397 38.7601 98.2304 38.7977 97.3333 38.7829C95.1158 38.7465 92.3205 38.0637 91.1822 35.9386C91.1275 35.8364 91.0782 35.7282 91.0392 35.6151C90.8962 35.2007 91.157 34.7614 91.6217 34.6339C92.0863 34.5064 92.5789 34.7389 92.7219 35.1533C92.7315 35.1812 92.747 35.2173 92.7708 35.2618C93.4623 36.5526 95.339 37.1798 97.3657 37.2131C98.1844 37.2265 99.1078 37.1923 100.094 37.0796C102.159 36.8438 104.067 35.9351 105.283 34.4912C105.915 33.7407 106.213 33.1382 106.23 32.7608L106.231 32.7537L106.231 32.7465C106.269 32.1782 106.184 31.3059 105.832 30.5704C105.489 29.856 104.95 29.3606 104.084 29.2533C103.82 29.2207 103.426 29.2089 102.895 29.2053C102.719 29.2041 102.528 29.2038 102.327 29.2034C101.951 29.2028 101.54 29.2021 101.125 29.1955C99.8514 29.175 98.3584 29.0983 97.0847 28.7564C94.8266 28.1504 93.2592 26.7388 92.6667 26.2053C92.6344 26.1762 92.605 26.1497 92.5785 26.1261C92.2347 25.8195 92.2347 25.3225 92.5785 25.0159Z" fill="#2B1502"/>
<path id="Ellipse 136" d="M125 31.7009C125 37.1768 94.8453 30.1354 60.3275 30.1354C25.8097 30.1354 0 37.1768 0 31.7009C0 26.225 27.9822 21.7859 62.5 21.7859C97.0178 21.7859 125 26.225 125 31.7009Z" fill="#060606"/>
<path id="Ellipse 137" d="M96 21.4947C96 31.275 81.0015 26.7325 62.5 26.7325C43.9985 26.7325 29 31.275 29 21.4947C29 11.7144 43.9985 3.78595 62.5 3.78595C81.0015 3.78595 96 11.7144 96 21.4947Z" fill="#060606"/>
<path id="Union_3" fill-rule="evenodd" clip-rule="evenodd" d="M48.5909 1.01528C49.1569 0.239332 50.247 0.0994245 50.9882 0.707603L54.8981 3.91559C56.1627 4.95311 55.3787 7.02331 53.7564 6.93067L53.2121 6.89958L53.6164 10.0923L56.5183 9.71982C57.4353 9.60214 58.2741 10.261 58.392 11.1915L58.5796 12.6734C58.6975 13.6039 58.0497 14.4536 57.1327 14.5712L54.2308 14.9437L54.9869 20.9137L49.8196 21.5769L49.1801 15.5919L46.0837 15.9893C45.1668 16.107 44.3279 15.4481 44.2101 14.5176L44.0224 13.0357C43.9046 12.1052 44.5523 11.2556 45.4693 11.1379L48.6605 10.7283L48.312 7.46713L47.4593 7.74194C45.9121 8.24056 44.638 6.43487 45.6033 5.11146L48.5909 1.01528Z" fill="#9D826D"/>
<path id="Union (Stroke)_2" fill-rule="evenodd" clip-rule="evenodd" d="M52.2538 5.99419L53.8034 6.08269C54.6107 6.12879 55.0076 5.09753 54.3721 4.57611L50.4622 1.36812C50.0899 1.0626 49.5451 1.13449 49.2634 1.52064L46.2758 5.61682C45.7956 6.27513 46.4288 7.18295 47.2061 6.93244L49.0336 6.34348L49.5809 11.4663L45.5742 11.9805C45.1164 12.0392 44.7935 12.4629 44.8523 12.9274L45.04 14.4093C45.099 14.8752 45.5196 15.2056 45.9787 15.1467L49.9201 14.6408L50.5596 20.6258L54.0501 20.1778L53.294 14.2078L57.0278 13.7286C57.4856 13.6699 57.8086 13.2462 57.7497 12.7817L57.562 11.2998C57.503 10.8339 57.0824 10.5035 56.6233 10.5624L52.8929 11.0412L52.2538 5.99419ZM54.9869 20.9137L49.8196 21.5769L49.1801 15.5919L46.0837 15.9893C45.1668 16.107 44.3279 15.4481 44.2101 14.5176L44.0224 13.0357C43.9046 12.1052 44.5523 11.2556 45.4693 11.1379L48.6605 10.7283L48.312 7.46713L47.4593 7.74194C45.9121 8.24056 44.638 6.43487 45.6033 5.11146L48.5909 1.01528C49.1569 0.239332 50.247 0.0994245 50.9882 0.707603L54.8981 3.91559C56.0814 4.8864 55.471 6.76137 54.0586 6.92256C53.9615 6.93364 53.8607 6.93662 53.7564 6.93067L53.2121 6.89958L53.6164 10.0923L56.5183 9.71982C57.4353 9.60214 58.2741 10.261 58.392 11.1915L58.5796 12.6734C58.6975 13.6039 58.0497 14.4536 57.1327 14.5712L54.2308 14.9437L54.9869 20.9137Z" fill="#372612"/>
<path id="Union_4" fill-rule="evenodd" clip-rule="evenodd" d="M72.5001 1.8054C71.7106 1.6763 70.9328 2.20344 70.7629 2.98279L69.4371 9.06358C69.2671 9.84293 69.7694 10.5794 70.5589 10.7085L71.1463 10.8045L70.864 12.3774L68.0025 11.9639C67.1227 11.8367 66.3154 12.4459 66.1992 13.3244L66.014 14.7243C65.8978 15.6029 66.5168 16.4182 67.3965 16.5453L70.0471 16.9284L69.3483 20.8221L74.2631 21.7859L75.0063 17.645L77.9975 18.0773C78.8773 18.2044 79.6846 17.5952 79.8008 16.7167L79.986 15.3168C80.1022 14.4382 79.4832 13.6229 78.6035 13.4958L75.8231 13.094L76.089 11.6128L76.8733 11.741C77.6628 11.8701 78.4406 11.343 78.6105 10.5636L79.9363 4.48283C80.1063 3.70347 79.604 2.96703 78.8145 2.83793L72.5001 1.8054ZM74.2285 5.82507C74.1408 5.81072 74.0543 5.8693 74.0355 5.95589L73.7235 7.38654C73.7047 7.47314 73.7605 7.55496 73.8482 7.56931L75.3277 7.81124C75.4155 7.82559 75.5019 7.76701 75.5208 7.68042L75.8327 6.24977C75.8516 6.16317 75.7958 6.08135 75.708 6.067L74.2285 5.82507Z" fill="#9D826D"/>
<path id="Union (Stroke)_3" fill-rule="evenodd" clip-rule="evenodd" d="M72.0823 10.1446L71.519 13.2827L67.887 12.7578C67.4512 12.6948 67.0546 12.994 66.9971 13.4293L66.8119 14.8292C66.7533 15.2725 67.0681 15.6872 67.512 15.7513L70.9859 16.2533L70.2798 20.1872L73.6151 20.8412L74.3512 16.7397L78.113 17.2833C78.5488 17.3463 78.9454 17.0471 79.0029 16.6118L79.1881 15.2119C79.2467 14.7686 78.9319 14.3539 78.488 14.2898L74.8844 13.769L75.4365 10.6931L77.0036 10.9493C77.3704 11.0093 77.7452 10.7553 77.8241 10.3932L79.1499 4.31243C79.222 3.98189 79.0191 3.68438 78.6842 3.62962L72.3698 2.5971C72.003 2.53712 71.6282 2.79115 71.5493 3.15319L70.2235 9.23397C70.1514 9.56452 70.3543 9.86203 70.6892 9.91678L72.0823 10.1446ZM74.2631 21.7859L69.3483 20.8221L70.0471 16.9284L67.3965 16.5453C66.5168 16.4182 65.8978 15.6029 66.014 14.7243L66.1992 13.3244C66.3154 12.4459 67.1227 11.8367 68.0025 11.9639L70.864 12.3774L71.1463 10.8045L70.5589 10.7085C70.4983 10.6986 70.4394 10.6851 70.3823 10.6683C69.6962 10.4661 69.2802 9.78311 69.4371 9.06358L70.7629 2.98279C70.9328 2.20344 71.7106 1.6763 72.5001 1.8054L78.8145 2.83793C79.604 2.96703 80.1063 3.70347 79.9363 4.48283L78.6105 10.5636C78.4406 11.343 77.6628 11.8701 76.8733 11.741L76.089 11.6128L75.8231 13.094L78.6035 13.4958C79.4832 13.6229 80.1022 14.4382 79.986 15.3168L79.8008 16.7167C79.6846 17.5952 78.8773 18.2044 77.9975 18.0773L75.0063 17.645L74.2631 21.7859ZM73.249 5.78549C73.3589 5.28159 73.8483 4.9499 74.3588 5.03337L75.8383 5.27531C76.3807 5.36399 76.7358 5.88476 76.6191 6.42017L76.3072 7.85082C76.1973 8.35472 75.7079 8.68641 75.1975 8.60294L73.7179 8.361C73.1755 8.27231 72.8204 7.75155 72.9371 7.21614L73.249 5.78549ZM74.0355 5.95589C74.0543 5.8693 74.1408 5.81072 74.2285 5.82507L75.708 6.067C75.7958 6.08135 75.8516 6.16317 75.8327 6.24977L75.5208 7.68042C75.5019 7.76701 75.4155 7.82559 75.3277 7.81124L73.8482 7.56931C73.7605 7.55496 73.7047 7.47314 73.7235 7.38654L74.0355 5.95589Z" fill="#372612"/>
<path id="Ellipse 138" d="M95 22.1947C95 23.525 80.4493 22.1947 62.5 22.1947C44.5507 22.1947 30 23.525 30 22.1947C30 20.8644 44.5507 19.7859 62.5 19.7859C80.4493 19.7859 95 20.8644 95 22.1947Z" fill="#DA1717"/>
<path id="Ellipse 128" d="M113 33.7859C113 34.8905 112.552 35.7859 112 35.7859C111.448 35.7859 111 34.8905 111 33.7859C111 32.6814 111.448 31.7859 112 31.7859C112.552 31.7859 113 32.6814 113 33.7859Z" fill="#A37A3C"/>
<path id="Ellipse 128 (Stroke)" fill-rule="evenodd" clip-rule="evenodd" d="M112 35.5101C112.432 35.5101 112.833 34.7893 112.833 33.7859C112.833 32.7826 112.432 32.0618 112 32.0618C111.568 32.0618 111.167 32.7826 111.167 33.7859C111.167 34.7893 111.568 35.5101 112 35.5101ZM112 35.7859C112.552 35.7859 113 34.8905 113 33.7859C113 32.6814 112.552 31.7859 112 31.7859C111.448 31.7859 111 32.6814 111 33.7859C111 34.8905 111.448 35.7859 112 35.7859Z" fill="black"/>
<path id="Ellipse 129" d="M113 37.2859C113 38.1144 112.552 38.7859 112 38.7859C111.448 38.7859 111 38.1144 111 37.2859C111 36.4575 111.448 35.7859 112 35.7859C112.552 35.7859 113 36.4575 113 37.2859Z" fill="#A37A3C"/>
<path id="Ellipse 129 (Stroke)" fill-rule="evenodd" clip-rule="evenodd" d="M112 38.5791C112.432 38.5791 112.833 38.0385 112.833 37.2859C112.833 36.5334 112.432 35.9928 112 35.9928C111.568 35.9928 111.167 36.5334 111.167 37.2859C111.167 38.0385 111.568 38.5791 112 38.5791ZM112 38.7859C112.552 38.7859 113 38.1144 113 37.2859C113 36.4575 112.552 35.7859 112 35.7859C111.448 35.7859 111 36.4575 111 37.2859C111 38.1144 111.448 38.7859 112 38.7859Z" fill="black"/>
<path id="Ellipse 130" d="M113 41.2859C113 42.6667 112.552 43.7859 112 43.7859C111.448 43.7859 111 42.6667 111 41.2859C111 39.9052 111.448 38.7859 112 38.7859C112.552 38.7859 113 39.9052 113 41.2859Z" fill="#A37A3C"/>
<path id="Ellipse 130 (Stroke)" fill-rule="evenodd" clip-rule="evenodd" d="M112 43.4411C112.432 43.4411 112.833 42.5402 112.833 41.2859C112.833 40.0317 112.432 39.1308 112 39.1308C111.568 39.1308 111.167 40.0317 111.167 41.2859C111.167 42.5402 111.568 43.4411 112 43.4411ZM112 43.7859C112.552 43.7859 113 42.6667 113 41.2859C113 39.9052 112.552 38.7859 112 38.7859C111.448 38.7859 111 39.9052 111 41.2859C111 42.6667 111.448 43.7859 112 43.7859Z" fill="black"/>
<path id="Ellipse 131" d="M113 44.2859C113 45.1144 112.552 45.7859 112 45.7859C111.448 45.7859 111 45.1144 111 44.2859C111 43.4575 111.448 42.7859 112 42.7859C112.552 42.7859 113 43.4575 113 44.2859Z" fill="#A37A3C"/>
<path id="Ellipse 131 (Stroke)" fill-rule="evenodd" clip-rule="evenodd" d="M112 45.5791C112.432 45.5791 112.833 45.0385 112.833 44.2859C112.833 43.5334 112.432 42.9928 112 42.9928C111.568 42.9928 111.167 43.5334 111.167 44.2859C111.167 45.0385 111.568 45.5791 112 45.5791ZM112 45.7859C112.552 45.7859 113 45.1144 113 44.2859C113 43.4575 112.552 42.7859 112 42.7859C111.448 42.7859 111 43.4575 111 44.2859C111 45.1144 111.448 45.7859 112 45.7859Z" fill="black"/>
<path id="Ellipse 132" d="M113 47.2859C113 48.1144 112.552 48.7859 112 48.7859C111.448 48.7859 111 48.1144 111 47.2859C111 46.4575 111.448 45.7859 112 45.7859C112.552 45.7859 113 46.4575 113 47.2859Z" fill="#A37A3C"/>
<path id="Ellipse 132 (Stroke)" fill-rule="evenodd" clip-rule="evenodd" d="M112 48.5791C112.432 48.5791 112.833 48.0385 112.833 47.2859C112.833 46.5334 112.432 45.9928 112 45.9928C111.568 45.9928 111.167 46.5334 111.167 47.2859C111.167 48.0385 111.568 48.5791 112 48.5791ZM112 48.7859C112.552 48.7859 113 48.1144 113 47.2859C113 46.4575 112.552 45.7859 112 45.7859C111.448 45.7859 111 46.4575 111 47.2859C111 48.1144 111.448 48.7859 112 48.7859Z" fill="black"/>
<rect id="Rectangle 34627037" x="24" y="36.7859" width="1" height="2" rx="0.5" fill="#2B1502"/>
<path id="Vector 249" d="M64 44.7859L62.1067 46.2059C62.0533 46.2459 62.0533 46.3259 62.1067 46.3659L64 47.7859" stroke="black" stroke-linecap="round"/>
</g>
</svg>
